<?xml version="1.0" encoding="utf-8"?>
<!-- Uploaded to: SVG Repo, www.svgrepo.com, Generator: SVG Repo Mixer Tools -->
<!DOCTYPE svg PUBLIC "-//W3C//DTD SVG 1.1//EN" "http://www.w3.org/Graphics/SVG/1.1/DTD/svg11.dtd">
<svg fill="#000000" width="800px" height="800px" viewBox="0 0 1000 1000" version="1.1" xmlns="http://www.w3.org/2000/svg" xmlns:xlink="http://www.w3.org/1999/xlink"  enable-background="new 0 0 1000 1000" xml:space="preserve">

<g>
<g transform="translate(0.000000,511.000000) scale(0.100000,-0.100000)">
<path d="M8118.2,4731.2c-43.5-46-363-424.3-710.6-838.5c-411.6-488.3-657-800.1-697.9-889.6c-122.7-268.4-66.5-634,138-917.7c48.6-69,104.8-148.3,127.8-178.9c38.3-53.7,20.5-79.2-641.6-881.9C5510.8,30.1,5592.6,119.6,5546.6,158c-30.7,23-365.6-268.4-1891.6-1659C2635-2429,1771-3226.6,1735.2-3270c-143.2-189.2-148.3-455-12.8-731.1c94.6-191.7,250.5-319.5,447.3-365.5c163.6-38.3,365.5,15.3,524,138c84.4,63.9,3054.8,3711.7,3236.3,3972.5c35.8,53.7,35.8,61.3-12.8,102.2c-53.7,46-46,56.2,664.6,910c393.7,475.5,728.5,858.9,746.4,851.3c322.1-143.2,363-153.4,603.3-155.9c138.1,0,283.7,15.3,337.4,33.2c209.6,74.1,237.7,104.8,1510.8,1674.4c66.5,81.8,120.2,171.3,120.2,199.4c0,76.7-112.5,176.4-199.4,176.4c-89.5,0-89.5,2.6-669.8-715.8c-258.2-317-472.9-577.7-483.2-580.3c-7.7-5.1-63.9,35.8-122.7,89.5l-107.4,94.6l421.8,498.5c567.5,667.2,623.7,738.8,623.7,795c0,76.7-115,176.4-202,176.4c-69,0-130.4-63.9-593-613.5c-286.3-337.4-529.2-613.5-539.4-613.5c-30.7,0-199.4,135.5-199.4,158.5c0,7.7,230.1,288.9,511.3,621.2c434.6,516.4,511.3,618.6,511.3,687.6c0,104.8-66.4,168.7-176.4,168.7c-97.1,0-61.3,35.8-669.7-685.1l-470.4-562.4l-97.1,76.7c-56.2,46-92,92-84.3,112.5c7.7,20.4,258.2,324.6,554.7,677.4c585.4,692.8,613.5,741.3,485.7,846.1C8304.9,4838.5,8210.3,4825.8,8118.2,4731.2z M8258.8,1893.7c-99.7-76.7-306.7-109.9-462.7-74.1c-191.7,43.5-314.4,112.5-485.7,278.6c-258.2,255.6-365.5,570.1-260.7,772l38.3,76.7l616.1-503.6l613.5-503.6L8258.8,1893.7z"/>
<path d="M114.5,4488.3C201.4,4173.9,434,3675.4,930,2747.5C2353.8,89,2870.2-706.1,3322.7-936.1c71.6-35.8,155.9-53.7,250.5-53.7c140.6,0,148.3,2.5,301.6,148.3c86.9,81.8,260.7,237.7,383.4,347.6c209.6,181.5,230.1,194.3,271,158.5c40.9-35.8,61.3-23,260.7,155.9c117.6,107.3,217.3,201.9,222.4,212.2c2.6,7.7-214.7,222.4-485.7,472.9C2612,2295,193.7,4524.1,122.2,4565C94,4580.4,94,4565,114.5,4488.3z"/>
<path d="M5579.9-1028.2c-130.4-161-230.1-309.3-222.4-327.2c12.8-30.7,544.5-772,1150.3-1600.3c692.8-953.5,1124.8-1439.2,1385.5-1564.4c271-130.4,516.4-84.4,726,130.4c191.7,199.4,265.8,572.6,158.5,805.2c-53.7,117.6-575.2,636.5-1855.9,1843.1C5994-867.1,5850.8-734.2,5827.8-734.2C5820.1-734.2,5707.7-867.1,5579.9-1028.2z"/>
</g>
</g>
</svg>