<?xml version="1.0" encoding="iso-8859-1"?>
<!-- Uploaded to: SVG Repo, www.svgrepo.com, Generator: SVG Repo Mixer Tools -->
<svg height="800px" width="800px" version="1.1" id="Capa_1" xmlns="http://www.w3.org/2000/svg" xmlns:xlink="http://www.w3.org/1999/xlink" 
	 viewBox="0 0 291.014 291.014" xml:space="preserve">
<g>
	<g>
		<g>
			<path style="fill:#010002;" d="M0,180.171l3.166-2.638c0.147,0.156,13.659,16.16,33.219,17.01
				c1.68,0.088,3.322,0.049,5.002-0.137l35.993-20.771l23.917-13.805l38.905-22.491l6.517-5.843l-25.803-44.65
				c-3.302-5.706-1.339-12.955,4.328-16.267c5.686-3.293,12.994-1.348,16.297,4.357l23.321,40.321l6.624,11.49l32.798,56.784
				l-0.117,0.078l0.156-0.049c0,0,1.749,3.527,4.768,1.27c2.97-2.257,6.39-5.286,9.653-8.647
				c15.652-15.808,30.571-22.755,44.386-20.644c18.143,2.726,27.366,20.068,27.747,20.801l-3.683,1.876
				c-0.098-0.147-8.686-16.16-24.709-18.583c-12.418-1.856-26.145,4.69-40.781,19.472c-2.56,2.628-5.09,4.934-7.65,7.025
				c-11.05,9.233-21.641,13.981-31.694,14.04c-1.563,0-3.068-0.117-4.543-0.342l-0.459-0.02c-2.364-0.381-4.563-0.987-6.605-1.749
				c-12.936-4.924-19.941-16.814-21.006-18.788c-1.661-1.778-15.994-16.433-35.515-16.961c-12.994-0.391-25.588,5.589-37.498,17.596
				c-12.936,13.121-26.516,19.433-40.566,18.847l-1.925-0.215C13.913,196.683,0.557,180.865,0,180.171z M227.674,155.98
				c12.31-7.122,16.502-22.823,9.428-35.153c-7.122-12.281-22.843-16.472-35.153-9.379c-12.252,7.122-16.502,22.843-9.409,35.153
				C199.663,158.872,215.422,163.073,227.674,155.98z M263.257,177.474c-13.815-2.14-28.714,4.885-44.386,20.635
				c-14.616,14.831-28.314,21.377-40.761,19.491c-16.082-2.403-24.631-18.456-24.689-18.612l-0.303-0.42
				c-0.625-0.703-16.14-17.899-38.602-18.485c-14.177-0.381-27.865,5.921-40.585,18.808c-12.076,12.242-24.689,18.133-37.42,17.557
				c-19.56-0.83-33.052-16.854-33.199-17.039l-3.185,2.697c0.576,0.703,14.772,17.567,36.198,18.524
				c14.03,0.616,27.61-5.725,40.566-18.788c11.89-12.008,24.484-18.045,37.459-17.606c19.54,0.508,33.893,15.212,35.515,16.912
				c1.26,2.286,10.435,17.928,27.63,20.547c1.641,0.244,3.283,0.352,5.012,0.342c12.408-0.059,25.598-7.122,39.354-20.967
				c14.616-14.821,28.324-21.377,40.781-19.491c16.023,2.394,24.611,18.446,24.67,18.602l3.703-1.954
				C290.623,197.523,281.43,180.21,263.257,177.474z"/>
		</g>
	</g>
</g>
</svg>